PathFileType	4	(X/Y/Z)	S01_0002_Gait_markers.trc
DataRate	CameraRate	NumFrames	NumMarkers	Units	OrigDataRate	OrigDataStartFrame	OrigNumFrames
250.000000	250.000000	4	54	mm	250.000000	41	330
Frame#	Time	HEAD_ANT			R_HEAD			L_HEAD			C7			R_BACK			L_BACK			STERNUM			R_ACROMION			R_HUM_PROX			R_HUM_ANT			R_HUM_POST			R_ELBOW_LAT			R_ELBOW_MED			R_FOREARM			R_WIRST_LAT			R_WRITS_MED			R_HAND			L_ACROMION			L_HUM_PROX			L_HUM_ANT			L_HUM_POST			L_ELBOW_LAT			L_ELBOW_MED			L_FOREARM			L_WRIST_LAT			L_WIRST_MED			L_HAND			R_ILIAC			SACRUM			L_ILIAC			R_GTROCH			R_THIGH__1			R_THIGH_2			R_THIGH_3			R_THIGH_4			R_SHANK_1			R_SHANK_2			R_SHANK_3			R_SHANK_4			R_HEEL			R_FOOT_LAT			R_FOOT_MED			L_GTROCH			L_THIGH_1			L_THIGH_2			L_THIGH_3			L_THIGH_4			L_SHANK_1			L_SHANK_2			L_SHANK_3			L_SHANK_4			L_HEEL			L_FOOT_LAT			L_FOOT_MED			
		X1	Y1	Z1	X2	Y2	Z2	X3	Y3	Z3	X4	Y4	Z4	X5	Y5	Z5	X6	Y6	Z6	X7	Y7	Z7	X8	Y8	Z8	X9	Y9	Z9	X10	Y10	Z10	X11	Y11	Z11	X12	Y12	Z12	X13	Y13	Z13	X14	Y14	Z14	X15	Y15	Z15	X16	Y16	Z16	X17	Y17	Z17	X18	Y18	Z18	X19	Y19	Z19	X20	Y20	Z20	X21	Y21	Z21	X22	Y22	Z22	X23	Y23	Z23	X24	Y24	Z24	X25	Y25	Z25	X26	Y26	Z26	X27	Y27	Z27	X28	Y28	Z28	X29	Y29	Z29	X30	Y30	Z30	X31	Y31	Z31	X32	Y32	Z32	X33	Y33	Z33	X34	Y34	Z34	X35	Y35	Z35	X36	Y36	Z36	X37	Y37	Z37	X38	Y38	Z38	X39	Y39	Z39	X40	Y40	Z40	X41	Y41	Z41	X42	Y42	Z42	X43	Y43	Z43	X44	Y44	Z44	X45	Y45	Z45	X46	Y46	Z46	X47	Y47	Z47	X48	Y48	Z48	X49	Y49	Z49	X50	Y50	Z50	X51	Y51	Z51	X52	Y52	Z52	X53	Y53	Z53	X54	Y54	Z54	

42	0.164	415.697021484375	1716.360717773438	-294.1753234863277	358.6313781738281	1660.443481445312	-218.8549346923824	356.8413696289062	1670.029663085938	-366.1104125976559	221.0208892822266	1494.76708984375	-303.954193115234	151.3396606445312	1294.861083984375	-243.3435516357419	152.9351501464844	1301.037231445312	-381.7388610839841	398.9321899414062	1331.845581054688	-300.4707031249997	293.4438171386719	1443.931762695312	-129.1154174804684	239.1834411621094	1286.21435546875	-41.73962783813448	293.5557861328125	1196.96435546875	-30.26679039001438	172.5869140625	1207.213623046875	-36.75326156616184	212.6309356689453	1097.933959960938	-23.35192871093725	201.4425964355469	1092.796875	-102.5777435302732	298.4859924316406	909.259033203125	-5.901586532592572	340.2952575683594	840.6636352539062	-36.95890045165997	264.7154235839844	821.3340454101562	-18.45622062683087	324.4366760253906	752.387939453125	16.10614395141618	305.6679992675781	1453.537963867188	-470.793060302734	290.7629089355469	1289.2666015625	-569.6027221679684	355.2163696289062	1210.263793945313	-566.5744018554685	235.4954528808594	1210.754028320313	-599.0040893554685	298.2029113769531	1107.901611328125	-606.7379150390623	245.2343444824219	1097.125854492188	-550.8652343749998	429.7321472167969	950.8645019531251	-579.207092285156	472.1498718261719	899.7733764648439	-524.4742431640623	430.1442260742188	867.0518188476564	-585.377258300781	515.4689331054688	827.4598999023439	-570.108215332031	307.2482299804688	1043.68408203125	-137.088439941406	172.8230133056641	1018.84619140625	-294.5916748046873	280.2433776855469	1038.150634765625	-480.6985778808591	283.1488037109375	896.7505493164062	-118.6772842407225	404.3243103027344	637.1494750976562	-157.6732025146483	452.3402099609375	672.1155395507812	-159.9630889892577	487.2304077148438	577.73974609375	-197.9465179443358	426.6982421875	560.6395263671875	-179.635040283203	472.3477478027344	340.9974670410157	-180.2879028320312	527.5672607421875	331.6107788085938	-202.917999267578	537.7604370117188	247.9048614501954	-222.0596008300781	476.8619079589844	240.9764251708985	-202.4248046874999	463.5700988769531	37.01332092285163	-291.3089599609375	629.501220703125	23.67893028259282	-215.1746826171875	676.84326171875	45.24870300292976	-307.8990783691406	233.4242706298828	931.6617431640626	-480.4406738281248	254.4424896240234	641.1278686523439	-482.5843811035155	205.6237487792969	674.7632446289064	-489.7299499511717	170.3602294921875	576.4305419921876	-464.3748168945311	233.0817413330078	564.1083374023439	-465.3868103027343	50.8451042175293	339.4279174804689	-451.4878234863281	-6.869977474212646	359.0694885253907	-448.9472351074218	-61.76189804077148	293.4463806152345	-429.0685119628906	-8.038632392883301	257.7195129394532	-426.0549926757812	-199.6297302246094	177.879364013672	-350.0909729003906	-102.8257217407227	24.17351722717294	-396.115478515625	-60.5382194519043	34.6389236450196	-298.7950134277344	
43	0.168	421.6737060546875	1716.852294921875	-293.445892333984	364.5736083984375	1660.913940429688	-218.1012878417965	362.7344055175781	1670.690185546875	-365.4381713867184	227.3246612548828	1495.335693359375	-303.3375549316403	157.3878631591797	1295.2529296875	-242.6359252929685	159.2579040527344	1301.258056640625	-381.1604309082028	405.1754760742188	1332.404418945312	-300.2453613281247	299.8262939453125	1444.246337890625	-128.5776672363278	246.0003967285156	1286.379638671875	-41.43313598632784	300.5901794433594	1197.059326171875	-30.34806060790989	179.4569244384766	1207.24755859375	-36.1413383483884	219.3189849853516	1098.258056640625	-23.37490081787085	208.1967468261719	1093.304931640625	-102.6234893798826	305.5489196777344	909.493896484375	-6.17067766189555	347.3125305175781	840.7314453125	-37.27414703369122	271.7768859863281	821.568603515625	-18.62389564514142	331.5197143554688	752.4939575195312	15.78429889678972	311.9132080078125	1454.046875	-470.2184143066403	296.4327392578125	1289.86279296875	-569.0111694335934	360.5049743652344	1210.706787109375	-566.2332763671873	240.8179168701172	1211.51708984375	-598.2474975585935	303.2067565917969	1108.5439453125	-606.298156738281	250.4254150390625	1097.859741210938	-550.1884765624998	433.8458557128906	950.6670532226564	-579.486389160156	476.0712585449219	899.3010253906251	-525.2919311523435	433.7984619140625	866.9270019531251	-585.843811035156	518.8903198242188	826.5493774414064	-570.8730468749998	313.9674072265625	1044.145263671875	-136.8195190429685	179.0601043701172	1019.265625	-294.8575744628904	287.4370727539062	1038.4755859375	-480.317932128906	289.5924072265625	897.9248046875	-118.7471466064451	411.5632019042969	638.0237426757812	-157.2924652099608	459.4709167480469	673.0687866210938	-160.3696136474608	493.6031494140625	578.11669921875	-198.4412536621092	433.619384765625	561.3143920898438	-179.3126983642577	476.9505920410156	341.1151428222657	-179.9265136718749	531.8486938476562	331.2032470703126	-203.3086547851562	540.9805908203125	247.2270812988282	-222.5129089355468	480.2771301269531	241.1736297607422	-201.8776245117187	464.2020568847656	37.48018646240241	-291.1524353027344	630.385986328125	23.12210464477544	-214.1589813232422	677.7581787109375	43.14655685424812	-308.5036315917969	240.3774719238281	931.2988281250001	-480.6387023925779	262.9832458496094	640.9063720703126	-483.3976135253905	214.0182342529297	674.1412353515626	-490.2521057128905	179.6396331787109	575.4934082031251	-465.4054260253905	242.2248229980469	563.5303955078126	-466.4943237304686	58.29254150390625	339.8604125976564	-453.4354858398437	0.9531970620155334	360.2827453613282	-450.4509887695312	-54.43661117553711	294.9492492675782	-430.4501342773437	-1.036650538444519	258.9657592773439	-427.6598205566406	-192.7880249023438	182.3039550781251	-351.3506774902343	-101.5970230102539	24.99016952514657	-396.130859375	-59.23462295532227	35.09895706176764	-299.3013000488281	
44	0.172	427.4524536132812	1717.199829101562	-292.6648559570309	370.4423828125	1661.327514648438	-217.4202117919918	368.725830078125	1671.221313476562	-364.7661132812496	233.5276641845703	1495.787475585938	-302.7273254394528	163.6350250244141	1295.467529296875	-242.0248260498044	165.5119934082031	1301.387939453125	-380.5249328613278	411.5160827636719	1332.997436523438	-299.7725524902341	306.0656433105469	1444.5087890625	-128.1564331054684	252.7809753417969	1286.495971679688	-41.03659057617159	307.7074279785156	1197.414184570312	-30.44723701477024	186.4176025390625	1207.305297851562	-35.45760345458957	226.2129211425781	1098.501342773438	-23.02156448364233	215.2267608642578	1093.725463867188	-102.5092315673826	312.840576171875	909.6240844726562	-6.261864662170209	354.3868408203125	840.9672241210938	-37.85222625732403	278.8877563476562	821.786376953125	-18.89451789855939	338.6726379394531	752.6181030273438	15.16321659088151	318.1385803222656	1454.72607421875	-469.6325988769528	302.1854553222656	1290.442260742188	-568.5241699218747	365.9690246582031	1211.03369140625	-565.9232788085935	245.9878234863281	1212.279296875	-597.6280517578123	308.1873779296875	1109.193115234375	-605.878967285156	257.39599609375	1098.518920898438	-548.9369506835935	438.0964965820312	950.5505371093751	-579.8092041015623	479.9747009277344	898.7358398437501	-525.598205566406	437.3641662597656	866.7940063476564	-586.3186035156248	522.2730712890625	825.9426269531251	-571.7750854492185	320.5575561523438	1044.892456054688	-136.8318634033201	185.1271667480469	1019.5400390625	-294.9197692871091	297.3912658691406	1039.431274414062	-479.5627746582029	295.6433715820312	899.017333984375	-118.5723953247068	418.643798828125	638.7887573242188	-156.7568206787108	466.3633728027344	673.4530639648438	-160.6204986572264	499.9649658203125	578.83154296875	-198.9964752197264	440.352294921875	561.9551391601562	-178.9947357177733	481.4087219238281	341.0812683105469	-179.7833557128905	535.9991455078125	330.6645507812501	-203.5801849365234	544.1436767578125	246.6023406982422	-222.8830108642578	483.5722045898438	241.1274719238282	-201.7486724853515	465.2372436523438	37.68867874145514	-290.4066162109375	630.823486328125	22.53953170776372	-213.6447448730469	678.5322875976562	41.33369445800788	-308.9333801269531	247.2207336425781	931.1155395507814	-480.6935729980466	271.731201171875	640.6768188476564	-484.0932312011717	222.5807495117188	673.7667236328126	-490.8046264648436	188.8715667724609	574.5735473632814	-466.7518310546874	251.5559844970703	563.0786743164064	-468.0975952148436	66.57894134521484	340.4302062988282	-455.0665283203124	9.374118804931641	361.3303527832032	-451.7192382812499	-46.65028381347656	296.658416748047	-431.5136718749999	6.033840656280518	259.9965820312501	-429.8708496093749	-185.5443572998047	186.6911773681641	-353.0380249023437	-100.2760848999023	25.94224739074716	-396.3091735839844	-57.95649337768555	35.69973754882819	-299.9065551757812	
45	0.176	433.3882751464844	1717.453247070312	-292.0403137207027	376.4223937988281	1661.642211914062	-216.7580718994137	374.675537109375	1671.638305664062	-364.1475830078121	239.6864776611328	1496.171508789062	-302.2367858886715	169.7962341308594	1295.946655273438	-241.3569030761716	171.7563323974609	1301.564331054688	-380.0415039062497	417.7582397460938	1333.628784179688	-299.2654113769528	312.3770446777344	1444.84423828125	-127.6226806640622	259.6267700195312	1286.724853515625	-40.60504150390597	314.6744689941406	1197.731323242188	-30.51411056518528	193.4915924072266	1207.654907226562	-34.50417709350559	233.0549926757812	1098.79541015625	-23.01132965087866	222.326171875	1094.005737304688	-102.275825500488	319.9206237792969	909.8348999023438	-6.616682052612103	361.4492797851562	841.3059692382812	-38.58541870117169	285.9017944335938	821.8624267578125	-19.22902870178205	346.0121154785156	752.8587646484375	14.8683347702028	324.3168029785156	1455.404052734375	-468.9784545898434	307.5798950195312	1291.120239257813	-567.9962158203122	371.3734436035156	1211.821044921875	-566.612121582031	251.2327728271484	1213.072265625	-596.5756835937498	313.1709594726562	1109.737182617188	-605.4240722656248	260.5707092285156	1099.74072265625	-548.739318847656	442.2531433105469	950.4481811523439	-580.0322265624998	483.8829040527344	898.2118530273439	-526.029846191406	440.9814147949219	866.7077636718751	-586.6325073242185	525.5714721679688	825.2230834960939	-572.6589355468748	327.1206665039062	1045.796020507812	-136.7301635742185	191.2540893554688	1019.929992675781	-295.0567321777341	304.8580932617188	1039.973022460938	-479.2807922363279	301.6287536621094	899.9576416015625	-118.5644454956053	425.3949890136719	639.0850830078125	-156.3234863281249	473.0601501464844	673.944580078125	-160.7348175048827	506.2950134277344	579.3895874023438	-199.5591583251952	446.7502136230469	562.2108154296875	-178.6990966796874	485.6122436523438	340.9992370605469	-179.7266235351562	540.0631713867188	330.2917480468751	-204.0000915527343	547.2852172851562	246.0876770019532	-223.3881683349609	486.7423706054688	240.973861694336	-201.9879150390624	465.7658386230469	37.96797943115241	-290.488037109375	631.117431640625	22.22520446777348	-213.4058532714844	679.291748046875	39.86310195922859	-309.4485778808594	254.0682067871094	931.0209960937501	-480.8619384765623	280.6272277832031	640.6781005859376	-485.1801757812498	231.06884765625	673.0435791015626	-491.141876220703	197.9799346923828	573.6628417968751	-467.9989929199218	261.1963195800781	562.5609130859376	-468.900421142578	74.95877075195312	340.8966064453126	-456.6737060546874	17.85782814025879	362.0814514160157	-453.1275939941406	-38.74433898925781	298.0296325683595	-433.4231262207031	13.77786064147949	260.8398742675782	-431.3430786132812	-177.9231109619141	191.1912078857423	-354.5645141601562	-98.78041076660156	27.05666160583505	-396.5667419433594	-56.7235107421875	36.48224639892585	-300.2288513183594	
